HIERARCHY
ROOT Hips
{
	OFFSET 0.000000 0.000000 0.000000
	CHANNELS 6 Xposition Yposition Zposition Zrotation Yrotation Xrotation 
	JOINT LeftUpLeg_virtual
	{
		OFFSET 0.000000 0.000000 0.000000
		CHANNELS 3 Zrotation Yrotation Xrotation
		JOINT LeftUpLeg
		{
			OFFSET 10.205400 -3.823500 0.155100
			CHANNELS 3 Zrotation Yrotation Xrotation
			JOINT LeftLeg
			{
				OFFSET 0.708757 -12.982077 0.567790
				CHANNELS 3 Zrotation Yrotation Xrotation
				JOINT LeftFoot
				{
					OFFSET -0.708756 -10.717838 -2.184338
					CHANNELS 3 Zrotation Yrotation Xrotation
					JOINT LeftToeBase
					{
						OFFSET 0.108149 -7.191104 7.560241
						CHANNELS 3 Zrotation Yrotation Xrotation
						End Site
						{
							OFFSET 0.000000 0.000000 0.000000
						}
					}
				}
			}
		}
	}
	JOINT RightUpLeg_virtual
	{
		OFFSET 0.000000 0.000000 0.000000
		CHANNELS 3 Zrotation Yrotation Xrotation
		JOINT RightUpLeg
		{
			OFFSET -10.205400 -3.823500 0.005500
			CHANNELS 3 Zrotation Yrotation Xrotation
			JOINT RightLeg
			{
				OFFSET -0.708756 -12.982134 0.610632
				CHANNELS 3 Zrotation Yrotation Xrotation
				JOINT RightFoot
				{
					OFFSET 0.708754 -10.717769 -1.945823
					CHANNELS 3 Zrotation Yrotation Xrotation
					JOINT RightToeBase
					{
						OFFSET -0.108140 -7.191069 7.372968
						CHANNELS 3 Zrotation Yrotation Xrotation
						End Site
						{
							OFFSET 0.000000 0.000000 0.000000
						}
					}
				}
			}
		}
	}
	JOINT Spine_virtual
	{
		OFFSET 0.000000 0.000000 0.000000
		CHANNELS 3 Zrotation Yrotation Xrotation
		JOINT Spine
		{
			OFFSET 0.000000 6.876099 0.125700
			CHANNELS 3 Zrotation Yrotation Xrotation
			JOINT Spine1
			{
				OFFSET 0.000000 8.022060 0.146608
				CHANNELS 3 Zrotation Yrotation Xrotation
				JOINT Spine2
				{
					OFFSET 0.000000 9.168068 0.167552
					CHANNELS 3 Zrotation Yrotation Xrotation
					JOINT Neck_virtual
					{
						OFFSET 0.000000 0.000000 0.000000
						CHANNELS 3 Zrotation Yrotation Xrotation
						JOINT Neck
						{
							OFFSET 0.000000 10.314075 0.188496
							CHANNELS 3 Zrotation Yrotation Xrotation
							JOINT Head
							{
								OFFSET 0.000000 7.643700 -2.377400
								CHANNELS 3 Zrotation Yrotation Xrotation
								End Site
								{
									OFFSET 0.000000 0.000000 0.000000
								}
							}
						}
					}
					JOINT LeftShoulder_virtual
					{
						OFFSET 0.000000 0.000000 0.000000
						CHANNELS 3 Zrotation Yrotation Xrotation
						JOINT LeftShoulder
						{
							OFFSET 4.392200 8.824978 0.174984
							CHANNELS 3 Zrotation Yrotation Xrotation
							JOINT LeftArm
							{
								OFFSET 8.771219 -2.981674 -0.026999
								CHANNELS 3 Zrotation Yrotation Xrotation
								JOINT LeftForeArm
								{
									OFFSET 8.512804 0.000000 -0.000000
									CHANNELS 3 Zrotation Yrotation Xrotation
									JOINT LeftHand
									{
										OFFSET 18.484802 0.000000 -0.000000
										CHANNELS 3 Zrotation Yrotation Xrotation
										End Site
										{
											OFFSET 0.000000 0.000000 0.000000
										}
									}
								}
							}
						}
					}
					JOINT RightShoulder_virtual
					{
						OFFSET 0.000000 0.000000 0.000000
						CHANNELS 3 Zrotation Yrotation Xrotation
						JOINT RightShoulder
						{
							OFFSET -4.392200 8.824993 0.141379
							CHANNELS 3 Zrotation Yrotation Xrotation
							JOINT RightArm
							{
								OFFSET -8.771282 -2.981682 -0.094208
								CHANNELS 3 Zrotation Yrotation Xrotation
								JOINT RightForeArm
								{
									OFFSET -8.494598 0.000000 0.000000
									CHANNELS 3 Zrotation Yrotation Xrotation
									JOINT RightHand
									{
										OFFSET -18.483803 0.000000 0.000001
										CHANNELS 3 Zrotation Yrotation Xrotation
										End Site
										{
											OFFSET 0.000000 0.000000 0.000000
										}
									}
								}
							}
						}
					}
				}
			}
		}
	}
}
MOTION
Frames: 5
Frame Time: 0.033333
13.538843 34.482738 13.052716 179.277781 8.897381 -179.971141 -3.176066 -3.351112 7.506640 -26.677481 1.201260 -35.226735 22.154627 9.706809 24.935979 -2.393379 -6.385634 11.713367 0.000000 0.000000 0.000000 3.749009 -1.712733 6.185936 21.184778 3.360386 -19.326862 -2.453817 -2.515013 22.365304 -2.689888 -0.531600 1.908827 0.000000 0.000000 0.000000 -0.759960 -0.105549 -1.789789 -2.543363 4.297704 -4.130131 -0.410436 -2.856157 7.203059 0.057070 0.029610 0.034789 -0.611983 -1.030330 11.159928 0.393579 2.245986 26.065218 0.000000 0.000000 0.000000 0.328352 -0.223499 7.854119 4.042309 -0.587974 -3.544817 -13.753779 14.178013 -44.796629 -1.562302 -57.395446 -0.040818 0.000000 0.000000 0.000000 -2.155730 0.420813 8.154977 24.426751 3.984246 0.984168 49.466142 -27.751836 4.078912 -1.031031 41.046664 -2.514518 0.000000 0.000000 0.000000 
13.499005 34.493401 13.161380 179.295485 9.040640 -179.916636 -3.161284 -3.240082 7.335995 -26.876630 1.996301 -35.080613 21.943583 10.175347 24.430122 -3.242793 -5.790856 11.811385 0.000000 0.000000 0.000000 3.704666 -1.544371 6.083997 21.199714 3.382640 -19.326980 -2.501202 -2.559787 22.033531 -2.858908 -0.439364 2.212730 0.000000 0.000000 0.000000 -0.731046 -0.172532 -1.947789 -2.547831 4.393835 -4.059833 -0.390874 -2.826407 7.388095 0.051612 0.040444 0.017834 -0.600100 -1.040039 11.237775 0.579147 2.079410 26.259975 0.000000 0.000000 0.000000 0.320233 -0.197852 7.871586 3.964526 -0.397142 -3.670694 -14.130405 14.646577 -44.922779 -1.417670 -57.114356 -0.037567 0.000000 0.000000 0.000000 -2.200966 0.419790 8.184228 24.565330 3.687542 0.813656 49.859210 -27.994125 4.242004 -1.137500 41.041254 -2.680570 0.000000 0.000000 0.000000 
13.436510 34.510647 13.258010 179.352230 8.901211 -179.864972 -3.153110 -3.366088 7.200438 -27.145789 2.890922 -34.947937 21.724568 10.538202 23.815415 -3.998537 -5.463253 11.883071 0.000000 0.000000 0.000000 3.696846 -1.477013 6.012817 21.163321 3.492986 -19.451735 -2.571236 -2.614048 21.686472 -2.978379 -0.423433 2.449994 0.000000 0.000000 0.000000 -0.654372 -0.233171 -1.882427 -2.526371 4.453063 -4.146683 -0.331461 -2.841622 7.499851 0.044526 0.013491 0.056947 -0.525285 -1.031510 11.463761 0.712821 1.946289 26.422773 0.000000 0.000000 0.000000 0.408925 -0.204916 8.139131 3.751592 -0.374733 -3.555822 -14.622457 14.693583 -45.409608 -1.011213 -56.404556 -0.345454 0.000000 0.000000 0.000000 -2.167371 0.449721 8.340998 24.614024 3.552229 0.652421 49.908298 -27.801841 4.633405 -1.241725 40.832080 -2.801630 0.000000 0.000000 0.000000 
13.346976 34.528511 13.337155 179.447552 8.862264 -179.825781 -3.166279 -3.333143 7.172866 -27.183902 3.205643 -34.805476 21.557279 11.435799 23.277467 -4.258244 -5.348174 12.040628 0.000000 0.000000 0.000000 3.739059 -1.277556 6.001409 21.045655 3.555124 -19.613790 -2.661891 -2.660239 21.525362 -2.990132 -0.443085 2.651293 0.000000 0.000000 0.000000 -0.523459 -0.261533 -1.829035 -2.462866 4.530188 -4.149020 -0.248106 -2.820665 7.682282 0.039675 0.023138 0.012302 -0.454997 -1.025790 11.641000 0.775575 1.787792 26.275774 0.000000 0.000000 0.000000 0.479689 -0.226590 8.320869 3.535432 -0.459200 -3.528040 -15.104554 14.594470 -45.889825 -0.935288 -55.582993 -0.336631 0.000000 0.000000 0.000000 -2.137217 0.453292 8.567299 24.609006 3.504689 0.471433 49.498528 -27.380569 5.423791 -1.310662 40.501840 -2.860602 0.000000 0.000000 0.000000 
13.229222 34.542000 13.401591 179.566493 8.778294 -179.849645 -3.138402 -3.377983 7.300453 -27.296339 3.408836 -34.764427 21.441241 12.249179 22.824588 -4.195114 -5.333506 12.263395 0.000000 0.000000 0.000000 3.797347 -1.172899 6.110023 20.902691 3.708218 -19.847078 -2.794356 -2.719147 21.459788 -2.888884 -0.499510 2.735011 0.000000 0.000000 0.000000 -0.366766 -0.174583 -1.672767 -2.366680 4.682426 -4.208279 -0.131116 -2.745389 7.871673 0.076263 0.127469 0.076042 -0.376492 -1.016468 11.952195 0.867339 1.710648 26.336081 0.000000 0.000000 0.000000 0.562819 -0.342169 8.603854 3.364869 -0.780017 -3.701169 -15.464843 14.312098 -46.348957 -0.817702 -54.662038 -0.379647 0.000000 0.000000 0.000000 -2.100797 0.290529 8.605160 24.514758 3.335617 0.341510 48.897399 -26.739537 6.063683 -1.185243 40.256749 -2.707132 0.000000 0.000000 0.000000 
